<svg width="10" height="10" viewBox="0 0 10 10" fill="none" xmlns="http://www.w3.org/2000/svg">
<path d="M9.7433 1.49396C10.085 1.15225 10.085 0.598234 9.7433 0.256526C9.40159 -0.0851831 8.84757 -0.0851831 8.50586 0.256526L4.99979 3.76259L1.49373 0.256526C1.15202 -0.0851823 0.598001 -0.0851827 0.256292 0.256526C-0.0854163 0.598235 -0.0854161 1.15225 0.256292 1.49396L3.76236 5.00003L0.256281 8.5061C-0.085427 8.84781 -0.0854273 9.40183 0.256281 9.74354C0.59799 10.0852 1.15201 10.0852 1.49372 9.74354L4.99979 6.23746L8.50587 9.74354C8.84758 10.0853 9.4016 10.0853 9.74331 9.74354C10.085 9.40183 10.085 8.84781 9.74331 8.50611L6.23723 5.00003L9.7433 1.49396Z" fill="#595959"/>
</svg>
