<svg width="16" height="16" viewBox="0 0 16 16" fill="none" xmlns="http://www.w3.org/2000/svg">
<path d="M7.54329 3.85453L8.0001 4.39097L8.45691 3.85453C9.04435 3.16469 9.94817 2.72793 10.8801 2.72793C12.5199 2.72793 13.8001 4.0081 13.8001 5.64793C13.8001 6.66044 13.3502 7.62601 12.4357 8.74406C11.5143 9.87052 10.1851 11.0773 8.52505 12.5827L8.52419 12.5834L7.99857 13.0619L7.47562 12.5895C7.47539 12.5893 7.47517 12.5891 7.47494 12.5889C5.81505 11.0805 4.48605 9.87227 3.56466 8.74501C2.65004 7.62605 2.2001 6.66045 2.2001 5.64793C2.2001 4.0081 3.48027 2.72793 5.1201 2.72793C6.05203 2.72793 6.95584 3.16469 7.54329 3.85453Z" stroke="#595959" stroke-width="1.2"/>
</svg>
